HIERARCHY
ROOT hip
{
	OFFSET 0.000000 0.000000 0.000000 
	CHANNELS 6 Xposition Yposition Zposition Xrotation Zrotation Yrotation
	JOINT abdomen
	{
		OFFSET 0.000000 3.402643 0.000000 
		CHANNELS 3 Xrotation Zrotation Yrotation
		JOINT chest
		{
			OFFSET 0.000000 8.438565 -0.680529 
			CHANNELS 3 Xrotation Zrotation Yrotation
			JOINT neck
			{
				OFFSET 0.000000 10.207942 -0.272212 
				CHANNELS 3 Xrotation Zrotation Yrotation
				JOINT head
				{
					OFFSET 0.000000 3.130431 0.000000 
					CHANNELS 3 Xrotation Zrotation Yrotation
					End Site
					{
						OFFSET 0.000000 3.130435 0.000000 
					}
				}
			}
			JOINT lCollar
			{
				OFFSET 3.470700 6.669187 -0.816635 
				CHANNELS 3 Yrotation Zrotation Xrotation
				JOINT lShldr
				{
					OFFSET 3.198488 0.000000 0.000000 
					CHANNELS 3 Zrotation Yrotation Xrotation
					JOINT lForeArm
					{
						OFFSET 10.139888 0.000000 0.000000 
						CHANNELS 3 Yrotation Zrotation Xrotation
						JOINT lHand
						{
							OFFSET 8.370511 0.000000 0.000000 
							CHANNELS 3 Zrotation Yrotation Xrotation
							End Site
							{
								OFFSET 4.083176 0.000000 0.000000 
							}
						}
					}
				}
			}
			JOINT rCollar
			{
				OFFSET -3.470700 6.669187 -0.816635 
				CHANNELS 3 Yrotation Zrotation Xrotation
				JOINT rShldr
				{
					OFFSET -3.198488 0.000000 0.000000 
					CHANNELS 3 Zrotation Yrotation Xrotation
					JOINT rForeArm
					{
						OFFSET -10.139888 0.000000 0.000000 
						CHANNELS 3 Yrotation Zrotation Xrotation
						JOINT rHand
						{
							OFFSET -8.370511 0.000000 0.000000 
							CHANNELS 3 Zrotation Yrotation Xrotation
							End Site
							{
								OFFSET -4.083176 0.000000 0.000000 
							}
						}
					}
				}
			}
		}
	}
	JOINT lThigh
	{
		OFFSET 5.308129 -1.633274 1.361059 
		CHANNELS 3 Xrotation Zrotation Yrotation
		JOINT lShin
		{
			OFFSET -2.041588 -20.007561 0.000000 
			CHANNELS 3 Xrotation Zrotation Yrotation
			JOINT lFoot
			{
				OFFSET 0.000000 -19.190928 -1.224953 
				CHANNELS 3 Xrotation Yrotation Zrotation
				End Site
				{
					OFFSET 0.000000 -2.449906 4.627600 
				}
			}
		}
	}
	JOINT rThigh
	{
		OFFSET -5.308129 -1.633274 1.361059 
		CHANNELS 3 Xrotation Zrotation Yrotation
		JOINT rShin
		{
			OFFSET 2.041588 -20.007561 0.000000 
			CHANNELS 3 Xrotation Zrotation Yrotation
			JOINT rFoot
			{
				OFFSET 0.000000 -19.190928 -1.224953 
				CHANNELS 3 Xrotation Yrotation Zrotation
				End Site
				{
					OFFSET 0.000000 -2.449906 4.627600 
				}
			}
		}
	}
}
MOTION
Frames: 9
Frame Time: 0.033333
-0.713378 50.601360 -5.388320 3.059662 -2.545200 -4.862863 0.000000 0.000000 0.000000 8.009694 1.237809 6.502457 27.202436 -1.056267 -0.204551 -15.852735 3.618992 5.045263 -2.007390 11.741522 25.000000 -72.359146 33.023113 -23.271318 -72.577637 -49.450253 29.064653 11.351810 -13.343098 -63.982624 15.104106 -17.475479 25.000000 34.347656 13.663009 61.600201 61.123486 -71.639236 37.871990 20.319729 27.451120 -76.497787 -8.080783 5.783343 18.759407 32.378872 -1.530765 -1.615789 -8.863675 7.502082 5.081748 9.176190 -27.162518 -8.185871 58.066292 14.564260 7.635835 -9.986131 -17.124180 17.069643 
-0.251752 49.032711 -5.431446 1.370120 -3.748931 -4.943564 0.000000 0.000000 0.000000 9.822309 2.280563 6.664332 27.427010 1.742233 0.005348 -16.958336 1.894257 5.256496 -5.749744 12.777580 25.000000 -72.229576 26.103294 -20.720453 -76.407227 -44.140968 25.129236 11.049077 -11.494182 -63.710720 12.269752 -13.819015 25.000000 33.400673 6.048856 62.696777 58.101791 -64.533379 36.397369 21.590532 26.603033 -76.416565 -8.329749 4.081873 18.177111 40.128410 0.908910 -1.483854 -8.727291 9.902158 15.067613 7.382257 -33.183804 -10.813989 61.888161 14.753460 8.056260 -13.243841 -22.231804 12.676329 
0.126860 47.434029 -5.695543 0.909896 -3.495654 -4.694648 0.000000 0.000000 0.000000 10.833398 1.409973 6.432057 26.525728 5.280558 0.273136 -17.226669 0.158219 5.226147 -10.475680 15.476089 25.000000 -71.310959 16.284767 -18.652481 -79.143532 -38.239403 22.755285 10.358833 -8.595241 -63.210266 8.404593 -11.607790 25.000000 33.377632 0.395899 63.678421 54.609661 -57.340557 35.081837 23.012228 26.500010 -76.194107 -9.499575 2.752130 17.674116 49.334137 3.171687 -1.444185 -13.915841 12.543827 21.441277 2.430839 -38.535442 -13.379365 64.601791 11.988850 7.663538 -14.485953 -22.743874 12.524984 
0.334180 46.696556 -6.102174 2.238820 -2.703017 -4.178243 0.000000 0.000000 0.000000 10.302793 0.192163 6.177543 25.630514 8.350015 0.507825 -16.571012 -1.440669 4.211985 -15.634530 18.352196 25.000000 -68.405975 4.774055 -17.958128 -81.488968 -31.876684 22.123377 9.188727 -6.208638 -62.737350 4.167613 -10.701464 25.000000 35.079700 -4.123683 65.112686 50.926655 -50.996857 33.993240 23.529602 26.476105 -76.178520 -8.919991 2.446791 17.615351 52.703487 2.594829 -1.729797 -18.751287 12.484694 22.719021 -5.372061 -40.055618 -13.898219 64.066582 7.854799 6.685203 -14.564883 -21.386236 12.908601 
0.405209 47.293011 -6.352747 3.676572 -2.894432 -2.988897 0.000000 0.000000 0.000000 9.658546 0.481360 6.263640 25.185921 10.855976 0.705592 -15.565560 -3.841187 2.238978 -22.008215 20.440363 25.000000 -64.459503 -5.688766 -18.285049 -84.260330 -23.991899 21.857485 8.761089 -5.992973 -62.773968 -0.903218 -9.458888 24.509876 36.339439 -8.677125 66.372627 49.192165 -45.593067 33.133694 21.706211 26.235353 -76.693840 -3.749129 2.176584 17.763226 47.187149 1.678387 -1.679497 -18.858168 9.859949 21.425890 -10.429662 -36.839031 -11.920251 58.960079 7.294734 6.088199 -14.123628 -21.492504 13.687403 
0.433553 48.697502 -6.397497 5.291224 -3.150607 -2.020248 0.000000 0.000000 0.000000 8.663924 1.168161 6.457448 24.732641 12.805379 0.859835 -14.752268 -6.765779 0.743625 -28.585089 22.457060 25.000000 -60.988991 -13.257166 -18.952133 -87.693039 -16.232321 20.138998 9.889829 -6.395607 -63.213352 -5.474007 -7.811239 23.842566 36.124233 -13.295737 66.981705 49.853142 -40.832130 31.093073 19.071968 26.548622 -77.263535 3.732572 0.945359 17.429626 36.076607 1.082271 -1.208518 -13.306995 6.281296 16.820890 -13.456603 -31.608839 -9.296355 51.440723 9.130355 5.762877 -14.280539 -21.948275 15.255591 
0.443172 50.308926 -6.244605 6.705743 -2.521715 -2.796534 0.000000 0.000000 0.000000 7.521529 1.316701 6.531435 24.990458 13.029191 0.872264 -14.575516 -8.494918 1.235534 -32.503597 22.615191 25.000000 -57.045414 -15.740130 -20.139992 -91.626114 -11.352203 17.778633 11.046062 -6.619055 -63.575169 -7.279477 -6.629766 23.733774 35.136868 -17.514803 67.141739 52.527187 -37.398796 31.085297 17.408823 26.625607 -77.645882 11.811120 -0.359550 16.739460 24.399105 -0.362909 -0.875053 -4.347874 1.493206 8.109459 -16.159801 -26.030294 -6.854569 43.543926 10.791003 5.367376 -14.677937 -19.594755 17.161961 
0.472903 51.594536 -5.968953 7.001979 -0.155085 -4.540558 0.000000 0.000000 0.000000 7.070392 -0.271358 6.196765 25.922527 11.878647 0.774316 -15.143783 -8.853986 2.691222 -33.821297 20.209021 25.000000 -53.722424 -13.261821 -21.300980 -94.904366 -9.144526 18.075022 11.709055 -7.091529 -63.805271 -7.096534 -6.377886 23.786606 34.218193 -20.444670 67.091278 56.302162 -36.086758 35.329273 17.097982 27.210253 -77.506676 18.262934 -2.242224 15.641861 19.154663 -0.258124 -0.509753 1.576931 -5.010286 -0.419960 -17.164942 -22.065580 -5.317109 35.792187 11.833623 4.843597 -14.116348 -13.748193 19.301571 
0.394066 52.182194 -5.707821 6.241047 3.329802 -5.699997 0.000000 0.000000 0.000000 7.485176 -3.553522 5.460836 26.337622 10.343914 0.650223 -15.527091 -8.810235 3.318047 -33.685242 17.947084 25.000000 -53.423897 -10.290034 -21.569345 -95.552231 -9.628869 19.452374 11.315822 -7.510674 -63.719318 -6.872329 -7.541606 23.659960 34.456615 -21.264601 67.309898 60.009182 -36.199871 39.917774 18.441278 28.187843 -76.882370 22.419815 -3.953928 14.682791 21.401390 1.999932 -0.150002 1.528579 -10.841471 -2.648763 -16.031195 -19.652700 -4.511458 28.541578 11.688210 4.109139 -12.847852 -8.062822 23.748699 
